<mxfile host="app.diagrams.net" modified="2023-05-25T09:31:30.874Z" agent="5.0 (X11; Linux x86_64) AppleWebKit/537.36 (KHTML, like Gecko) Chrome/113.0.0.0 Safari/537.36" etag="KEcZFTlRvej6aPUyq6X2" version="20.8.23" type="github">
  <diagram name="Page-1" id="Ofs9UHpUIScGUwqujJuh">
    <mxGraphModel dx="1562" dy="1825" grid="1" gridSize="10" guides="1" tooltips="1" connect="1" arrows="1" fold="1" page="1" pageScale="1" pageWidth="850" pageHeight="1100" math="0" shadow="0">
      <root>
        <mxCell id="0" />
        <mxCell id="1" parent="0" />
        <mxCell id="Ntnc2Ru-V7CuruGuNvEP-5" value="&lt;font size=&quot;1&quot; style=&quot;&quot;&gt;&lt;b style=&quot;font-size: 20px;&quot;&gt;Server&lt;/b&gt;&lt;/font&gt;" style="sketch=0;aspect=fixed;pointerEvents=1;shadow=0;dashed=0;html=1;strokeColor=none;labelPosition=center;verticalLabelPosition=bottom;verticalAlign=top;align=center;fillColor=#4D4D4D;shape=mxgraph.mscae.enterprise.workstation_client" parent="1" vertex="1">
          <mxGeometry x="730" y="-120" width="90" height="90" as="geometry" />
        </mxCell>
        <mxCell id="Ntnc2Ru-V7CuruGuNvEP-14" value="" style="endArrow=classic;html=1;rounded=0;" parent="1" edge="1">
          <mxGeometry width="50" height="50" relative="1" as="geometry">
            <mxPoint x="372" y="310" as="sourcePoint" />
            <mxPoint x="400" y="130" as="targetPoint" />
            <Array as="points" />
          </mxGeometry>
        </mxCell>
        <mxCell id="Ntnc2Ru-V7CuruGuNvEP-16" value="" style="endArrow=classic;html=1;rounded=0;" parent="1" edge="1">
          <mxGeometry width="50" height="50" relative="1" as="geometry">
            <mxPoint x="190" y="320" as="sourcePoint" />
            <mxPoint x="380" y="80" as="targetPoint" />
          </mxGeometry>
        </mxCell>
        <mxCell id="Ntnc2Ru-V7CuruGuNvEP-17" value="" style="endArrow=classic;html=1;rounded=0;" parent="1" edge="1">
          <mxGeometry width="50" height="50" relative="1" as="geometry">
            <mxPoint x="510" y="310" as="sourcePoint" />
            <mxPoint x="440" y="150" as="targetPoint" />
          </mxGeometry>
        </mxCell>
        <mxCell id="Ntnc2Ru-V7CuruGuNvEP-19" value="" style="endArrow=classic;html=1;rounded=0;" parent="1" edge="1">
          <mxGeometry width="50" height="50" relative="1" as="geometry">
            <mxPoint x="690" y="310" as="sourcePoint" />
            <mxPoint x="500" y="100" as="targetPoint" />
          </mxGeometry>
        </mxCell>
        <mxCell id="Ntnc2Ru-V7CuruGuNvEP-20" value="&lt;font style=&quot;font-size: 15px;&quot;&gt;&lt;font style=&quot;border-color: var(--border-color); color: rgb(0, 0, 255); font-style: normal; font-variant-ligatures: normal; font-variant-caps: normal; font-weight: 400; letter-spacing: normal; orphans: 2; text-align: center; text-indent: 0px; text-transform: none; widows: 2; word-spacing: 0px; -webkit-text-stroke-width: 0px; background-color: rgb(251, 251, 251); text-decoration-thickness: initial; text-decoration-style: initial; text-decoration-color: initial; font-size: 15px;&quot; face=&quot;Courier New&quot;&gt;&amp;nbsp; FL_Local_DataSet_Update +&lt;br&gt;FL_Local_Model_Update&lt;br&gt;&amp;nbsp;(C&lt;/font&gt;&lt;i style=&quot;border-color: var(--border-color); color: rgb(0, 0, 255); font-family: Helvetica; font-variant-ligatures: normal; font-variant-caps: normal; font-weight: 400; letter-spacing: normal; orphans: 2; text-align: center; text-indent: 0px; text-transform: none; widows: 2; word-spacing: 0px; -webkit-text-stroke-width: 0px; background-color: rgb(251, 251, 251); text-decoration-thickness: initial; text-decoration-style: initial; text-decoration-color: initial;&quot;&gt;lient&#39;s reply&lt;/i&gt;&lt;font style=&quot;border-color: var(--border-color); color: rgb(0, 0, 255); font-style: normal; font-variant-ligatures: normal; font-variant-caps: normal; font-weight: 400; letter-spacing: normal; orphans: 2; text-align: center; text-indent: 0px; text-transform: none; widows: 2; word-spacing: 0px; -webkit-text-stroke-width: 0px; background-color: rgb(251, 251, 251); text-decoration-thickness: initial; text-decoration-style: initial; text-decoration-color: initial; font-size: 15px;&quot; face=&quot;Courier New&quot;&gt;)&lt;/font&gt;&lt;/font&gt;" style="text;strokeColor=none;align=center;fillColor=none;html=1;verticalAlign=middle;whiteSpace=wrap;rounded=0;rotation=-50;" parent="1" vertex="1">
          <mxGeometry x="210" y="150" width="60" height="30" as="geometry" />
        </mxCell>
        <mxCell id="Ntnc2Ru-V7CuruGuNvEP-31" value="" style="endArrow=classic;html=1;rounded=0;" parent="1" edge="1">
          <mxGeometry width="50" height="50" relative="1" as="geometry">
            <mxPoint x="390" y="100" as="sourcePoint" />
            <mxPoint x="220" y="320" as="targetPoint" />
          </mxGeometry>
        </mxCell>
        <mxCell id="Ntnc2Ru-V7CuruGuNvEP-32" value="" style="endArrow=classic;html=1;rounded=0;" parent="1" edge="1">
          <mxGeometry width="50" height="50" relative="1" as="geometry">
            <mxPoint x="420" y="140" as="sourcePoint" />
            <mxPoint x="400" y="320" as="targetPoint" />
            <Array as="points" />
          </mxGeometry>
        </mxCell>
        <mxCell id="Ntnc2Ru-V7CuruGuNvEP-33" value="" style="endArrow=classic;html=1;rounded=0;" parent="1" edge="1">
          <mxGeometry width="50" height="50" relative="1" as="geometry">
            <mxPoint x="460" y="130" as="sourcePoint" />
            <mxPoint x="550" y="310" as="targetPoint" />
          </mxGeometry>
        </mxCell>
        <mxCell id="Ntnc2Ru-V7CuruGuNvEP-35" value="&lt;font style=&quot;font-size: 15px;&quot; color=&quot;#006600&quot;&gt;&lt;font style=&quot;border-color: var(--border-color); font-size: 15px; font-style: normal; font-variant-ligatures: normal; font-variant-caps: normal; font-weight: 400; letter-spacing: normal; orphans: 2; text-align: center; text-indent: 0px; text-transform: none; widows: 2; word-spacing: 0px; -webkit-text-stroke-width: 0px; background-color: rgb(251, 251, 251); text-decoration-thickness: initial; text-decoration-style: initial; text-decoration-color: initial;&quot; face=&quot;Courier New&quot;&gt;FL_Global_Model_Update (&lt;/font&gt;&lt;span style=&quot;border-color: var(--border-color); font-family: Helvetica; font-variant-ligatures: normal; font-variant-caps: normal; font-weight: 400; letter-spacing: normal; orphans: 2; text-align: center; text-indent: 0px; text-transform: none; widows: 2; word-spacing: 0px; -webkit-text-stroke-width: 0px; background-color: rgb(251, 251, 251); text-decoration-thickness: initial; text-decoration-style: initial; text-decoration-color: initial;&quot;&gt;&lt;i&gt;Server&#39;s POST&lt;br&gt;&amp;nbsp;request&lt;/i&gt;&lt;/span&gt;&lt;font style=&quot;border-color: var(--border-color); font-size: 15px; font-style: normal; font-variant-ligatures: normal; font-variant-caps: normal; font-weight: 400; letter-spacing: normal; orphans: 2; text-align: center; text-indent: 0px; text-transform: none; widows: 2; word-spacing: 0px; -webkit-text-stroke-width: 0px; background-color: rgb(251, 251, 251); text-decoration-thickness: initial; text-decoration-style: initial; text-decoration-color: initial;&quot; face=&quot;Courier New&quot;&gt;)&lt;/font&gt;&lt;/font&gt;" style="text;strokeColor=none;align=center;fillColor=none;html=1;verticalAlign=middle;whiteSpace=wrap;rounded=0;rotation=-55;" parent="1" vertex="1">
          <mxGeometry x="300" y="220" width="60" height="30" as="geometry" />
        </mxCell>
        <mxCell id="Ntnc2Ru-V7CuruGuNvEP-36" value="" style="endArrow=classic;html=1;rounded=0;" parent="1" edge="1">
          <mxGeometry width="50" height="50" relative="1" as="geometry">
            <mxPoint x="520" y="90" as="sourcePoint" />
            <mxPoint x="740" y="310" as="targetPoint" />
          </mxGeometry>
        </mxCell>
        <mxCell id="Ntnc2Ru-V7CuruGuNvEP-41" value="" style="group" parent="1" vertex="1" connectable="0">
          <mxGeometry x="115.25" y="330" width="144.75" height="144.75" as="geometry" />
        </mxCell>
        <mxCell id="Ntnc2Ru-V7CuruGuNvEP-37" value="&lt;h2 style=&quot;text-align: justify; line-height: 300%; font-size: 16px;&quot;&gt;&lt;span style=&quot;background-color: initial; font-size: 16px;&quot;&gt;&lt;font color=&quot;#000000&quot;&gt;Client 1&lt;/font&gt;&lt;/span&gt;&lt;/h2&gt;" style="whiteSpace=wrap;html=1;aspect=fixed;fontFamily=Helvetica;fontColor=#006600;fillColor=none;fontSize=16;fontStyle=1" parent="Ntnc2Ru-V7CuruGuNvEP-41" vertex="1">
          <mxGeometry width="144.75" height="144.75" as="geometry" />
        </mxCell>
        <mxCell id="Ntnc2Ru-V7CuruGuNvEP-8" value="" style="outlineConnect=0;dashed=0;verticalLabelPosition=bottom;verticalAlign=top;align=center;html=1;shape=mxgraph.aws3.generic;fillColor=#3399FF;gradientColor=none;" parent="Ntnc2Ru-V7CuruGuNvEP-41" vertex="1">
          <mxGeometry x="28.569999999999993" y="10" width="77.63" height="50" as="geometry" />
        </mxCell>
        <mxCell id="Ntnc2Ru-V7CuruGuNvEP-39" value="" style="aspect=fixed;perimeter=ellipsePerimeter;html=1;align=center;shadow=0;dashed=0;spacingTop=3;image;image=img/lib/active_directory/database.svg;fontFamily=Helvetica;fontColor=#006600;fillColor=none;" parent="Ntnc2Ru-V7CuruGuNvEP-41" vertex="1">
          <mxGeometry x="42.379999999999995" y="100" width="50" height="37" as="geometry" />
        </mxCell>
        <mxCell id="Ntnc2Ru-V7CuruGuNvEP-42" value="" style="group" parent="1" vertex="1" connectable="0">
          <mxGeometry x="290" y="330" width="144.75" height="144.75" as="geometry" />
        </mxCell>
        <mxCell id="Ntnc2Ru-V7CuruGuNvEP-43" value="&lt;h2 style=&quot;text-align: justify; line-height: 300%; font-size: 16px;&quot;&gt;&lt;span style=&quot;background-color: initial; font-size: 16px;&quot;&gt;&lt;font color=&quot;#000000&quot;&gt;Client 2&lt;/font&gt;&lt;/span&gt;&lt;/h2&gt;" style="whiteSpace=wrap;html=1;aspect=fixed;fontFamily=Helvetica;fontColor=#006600;fillColor=none;fontSize=16;fontStyle=1" parent="Ntnc2Ru-V7CuruGuNvEP-42" vertex="1">
          <mxGeometry width="144.75" height="144.75" as="geometry" />
        </mxCell>
        <mxCell id="Ntnc2Ru-V7CuruGuNvEP-44" value="" style="outlineConnect=0;dashed=0;verticalLabelPosition=bottom;verticalAlign=top;align=center;html=1;shape=mxgraph.aws3.generic;fillColor=#3399FF;gradientColor=none;" parent="Ntnc2Ru-V7CuruGuNvEP-42" vertex="1">
          <mxGeometry x="28.569999999999993" y="10" width="77.63" height="50" as="geometry" />
        </mxCell>
        <mxCell id="Ntnc2Ru-V7CuruGuNvEP-45" value="" style="aspect=fixed;perimeter=ellipsePerimeter;html=1;align=center;shadow=0;dashed=0;spacingTop=3;image;image=img/lib/active_directory/database.svg;fontFamily=Helvetica;fontColor=#006600;fillColor=none;" parent="Ntnc2Ru-V7CuruGuNvEP-42" vertex="1">
          <mxGeometry x="42.379999999999995" y="100" width="50" height="37" as="geometry" />
        </mxCell>
        <mxCell id="Ntnc2Ru-V7CuruGuNvEP-46" value="" style="group" parent="1" vertex="1" connectable="0">
          <mxGeometry x="460" y="330" width="144.75" height="144.75" as="geometry" />
        </mxCell>
        <mxCell id="XTk8xQUzbK8aBb1ZToZi-5" style="edgeStyle=orthogonalEdgeStyle;rounded=0;orthogonalLoop=1;jettySize=auto;html=1;dashed=1;strokeWidth=2;endArrow=none;endFill=0;targetPerimeterSpacing=-3;sourcePerimeterSpacing=8;endSize=3;" edge="1" parent="Ntnc2Ru-V7CuruGuNvEP-46">
          <mxGeometry relative="1" as="geometry">
            <mxPoint x="206" y="72" as="targetPoint" />
            <mxPoint x="156" y="72" as="sourcePoint" />
          </mxGeometry>
        </mxCell>
        <mxCell id="Ntnc2Ru-V7CuruGuNvEP-47" value="&lt;h2 style=&quot;text-align: justify; line-height: 300%; font-size: 16px;&quot;&gt;&lt;span style=&quot;background-color: initial; font-size: 16px;&quot;&gt;&lt;font color=&quot;#000000&quot;&gt;Client 3&lt;/font&gt;&lt;/span&gt;&lt;/h2&gt;" style="whiteSpace=wrap;html=1;aspect=fixed;fontFamily=Helvetica;fontColor=#006600;fillColor=none;fontSize=16;fontStyle=1" parent="Ntnc2Ru-V7CuruGuNvEP-46" vertex="1">
          <mxGeometry width="144.75" height="144.75" as="geometry" />
        </mxCell>
        <mxCell id="Ntnc2Ru-V7CuruGuNvEP-48" value="" style="outlineConnect=0;dashed=0;verticalLabelPosition=bottom;verticalAlign=top;align=center;html=1;shape=mxgraph.aws3.generic;fillColor=#3399FF;gradientColor=none;" parent="Ntnc2Ru-V7CuruGuNvEP-46" vertex="1">
          <mxGeometry x="28.569999999999993" y="10" width="77.63" height="50" as="geometry" />
        </mxCell>
        <mxCell id="Ntnc2Ru-V7CuruGuNvEP-49" value="" style="aspect=fixed;perimeter=ellipsePerimeter;html=1;align=center;shadow=0;dashed=0;spacingTop=3;image;image=img/lib/active_directory/database.svg;fontFamily=Helvetica;fontColor=#006600;fillColor=none;" parent="Ntnc2Ru-V7CuruGuNvEP-46" vertex="1">
          <mxGeometry x="42.379999999999995" y="100" width="50" height="37" as="geometry" />
        </mxCell>
        <mxCell id="Ntnc2Ru-V7CuruGuNvEP-50" value="" style="group" parent="1" vertex="1" connectable="0">
          <mxGeometry x="675.25" y="330" width="144.75" height="144.75" as="geometry" />
        </mxCell>
        <mxCell id="Ntnc2Ru-V7CuruGuNvEP-51" value="&lt;h2 style=&quot;text-align: justify; line-height: 300%; font-size: 16px;&quot;&gt;&lt;span style=&quot;background-color: initial; font-size: 16px;&quot;&gt;&lt;font color=&quot;#000000&quot;&gt;Client n&lt;/font&gt;&lt;/span&gt;&lt;/h2&gt;" style="whiteSpace=wrap;html=1;aspect=fixed;fontFamily=Helvetica;fontColor=#006600;fillColor=none;fontSize=16;fontStyle=1" parent="Ntnc2Ru-V7CuruGuNvEP-50" vertex="1">
          <mxGeometry width="144.75" height="144.75" as="geometry" />
        </mxCell>
        <mxCell id="Ntnc2Ru-V7CuruGuNvEP-52" value="" style="outlineConnect=0;dashed=0;verticalLabelPosition=bottom;verticalAlign=top;align=center;html=1;shape=mxgraph.aws3.generic;fillColor=#3399FF;gradientColor=none;" parent="Ntnc2Ru-V7CuruGuNvEP-50" vertex="1">
          <mxGeometry x="28.569999999999993" y="10" width="77.63" height="50" as="geometry" />
        </mxCell>
        <mxCell id="Ntnc2Ru-V7CuruGuNvEP-53" value="" style="aspect=fixed;perimeter=ellipsePerimeter;html=1;align=center;shadow=0;dashed=0;spacingTop=3;image;image=img/lib/active_directory/database.svg;fontFamily=Helvetica;fontColor=#006600;fillColor=none;" parent="Ntnc2Ru-V7CuruGuNvEP-50" vertex="1">
          <mxGeometry x="42.379999999999995" y="100" width="50" height="37" as="geometry" />
        </mxCell>
        <mxCell id="Ntnc2Ru-V7CuruGuNvEP-59" style="edgeStyle=orthogonalEdgeStyle;rounded=0;orthogonalLoop=1;jettySize=auto;html=1;exitX=1;exitY=0.5;exitDx=0;exitDy=0;exitPerimeter=0;fontFamily=Helvetica;fontSize=16;fontColor=#000000;entryX=0;entryY=0.75;entryDx=0;entryDy=0;strokeColor=default;endArrow=none;endFill=0;" parent="1" source="Ntnc2Ru-V7CuruGuNvEP-56" target="Ntnc2Ru-V7CuruGuNvEP-57" edge="1">
          <mxGeometry relative="1" as="geometry">
            <mxPoint x="550" y="80" as="targetPoint" />
          </mxGeometry>
        </mxCell>
        <mxCell id="Ntnc2Ru-V7CuruGuNvEP-56" value="&lt;b style=&quot;border-color: var(--border-color); font-size: 20px;&quot;&gt;802.15.4&lt;br style=&quot;border-color: var(--border-color);&quot;&gt;Wireless Gateway&lt;/b&gt;" style="shape=mxgraph.cisco.wireless.wlan_controller;html=1;pointerEvents=1;dashed=0;fillColor=#006633;strokeColor=#ffffff;strokeWidth=2;verticalLabelPosition=bottom;verticalAlign=top;align=center;outlineConnect=0;fontFamily=Helvetica;fontSize=16;fontColor=#000000;" parent="1" vertex="1">
          <mxGeometry x="400" y="-60" width="91" height="70" as="geometry" />
        </mxCell>
        <mxCell id="Ntnc2Ru-V7CuruGuNvEP-73" style="edgeStyle=entityRelationEdgeStyle;rounded=0;orthogonalLoop=1;jettySize=auto;html=1;exitX=1;exitY=0.75;exitDx=0;exitDy=0;entryX=0;entryY=0.5;entryDx=0;entryDy=0;entryPerimeter=0;strokeColor=default;fontFamily=Helvetica;fontSize=20;fontColor=#000000;endArrow=none;endFill=0;" parent="1" source="Ntnc2Ru-V7CuruGuNvEP-57" target="Ntnc2Ru-V7CuruGuNvEP-5" edge="1">
          <mxGeometry relative="1" as="geometry" />
        </mxCell>
        <mxCell id="Ntnc2Ru-V7CuruGuNvEP-57" value="&lt;b&gt;&lt;font style=&quot;font-size: 20px;&quot;&gt;Router&lt;/font&gt;&lt;/b&gt;" style="image;html=1;image=img/lib/clip_art/networking/Wireless_Router_N_128x128.png;strokeColor=#0000FF;fontFamily=Helvetica;fontSize=16;fontColor=#000000;fillColor=#006633;" parent="1" vertex="1">
          <mxGeometry x="590" y="20" width="80" height="80" as="geometry" />
        </mxCell>
      </root>
    </mxGraphModel>
  </diagram>
</mxfile>
